<svg width="148" height="38" viewBox="0 0 148 38" fill="none" xmlns="http://www.w3.org/2000/svg">
<path d="M83.662 12.7124C83.662 8.41611 83.7361 4.41611 83.9583 0.712402L72.625 2.86055V3.89759L73.7361 4.04574C74.5509 4.11981 75.0694 4.41611 75.3657 4.86055C75.662 5.37907 75.8842 6.11981 76.0324 7.23092C76.1805 9.37907 76.3287 14.268 76.2546 21.9717C76.2546 29.6013 76.1805 34.4161 76.0324 36.268C80.1064 37.1568 83.2916 37.5272 85.662 37.5272C90.1064 37.5272 93.5879 36.268 96.1064 33.6754C98.625 31.1568 99.9583 27.6013 99.9583 23.2309C99.9583 19.7494 98.9953 16.8605 97.0694 14.5643C95.1435 12.268 92.699 11.1568 89.8101 11.1568C87.8842 11.1568 85.8842 11.6754 83.662 12.7124ZM83.8842 35.5272C83.7361 33.1568 83.5879 26.0457 83.5879 14.4161C84.2546 14.1939 85.1435 14.0457 86.2546 14.0457C88.0324 14.0457 89.4398 14.9346 90.4768 16.7865C91.5138 18.6383 92.0324 20.8605 92.0324 23.6754C92.0324 27.1568 91.4398 29.9717 90.2546 32.342C89.0694 34.6383 87.5879 35.8235 85.7361 35.8235C85.1435 35.6754 84.5509 35.6013 83.8842 35.5272ZM30.1064 1.45314H0.476807V2.93462L2.03236 3.08277C3.21755 3.30499 4.03236 3.74944 4.55088 4.41611C5.0694 5.15685 5.36569 6.34203 5.43977 7.97166C6.03236 15.9717 6.03236 23.4531 5.43977 30.342C5.29162 31.9717 4.99533 33.1568 4.55088 33.8976C4.03236 34.6383 3.21755 35.0828 2.03236 35.2309L0.476807 35.4531V36.9346H19.5879V35.4531L17.5879 35.305C17.0999 35.2642 16.6252 35.125 16.1923 34.8958C15.7595 34.6667 15.3775 34.3523 15.0694 33.9717C14.5509 33.2309 14.2546 32.0457 14.1805 30.4161C13.9583 27.4531 13.8101 24.0457 13.8101 20.268L17.8101 20.342C19.9583 20.4161 21.4398 22.0457 22.1805 25.305H23.662V13.2309H22.1805C21.4398 16.4161 20.0324 18.0457 17.8101 18.1198L13.8101 18.1939C13.8101 11.5272 13.9583 6.78648 14.1805 3.89759H20.0324C24.1805 3.89759 26.9953 6.56425 28.625 11.8976L30.4027 11.3791L30.1064 1.45314ZM26.625 24.268C26.625 28.1198 27.7361 31.305 29.8842 33.8235C32.0324 36.342 35.2175 37.5272 39.2175 37.5272C43.2175 37.5272 46.4768 36.268 48.8472 33.6754C51.2175 31.1568 52.3287 27.9717 52.3287 24.1198C52.3287 20.268 51.2175 17.0828 49.0694 14.5643C46.9212 12.0457 43.7361 10.8605 39.7361 10.8605C35.7361 10.8605 32.4768 12.1198 30.1064 14.7124C27.7361 17.2309 26.625 20.4161 26.625 24.268ZM43.1435 15.8235C44.0324 17.9717 44.4027 20.7865 44.4027 24.1939C44.4027 32.0457 42.7731 35.8976 39.5879 35.8976C37.9583 35.8976 36.699 34.7865 35.8101 32.5643C34.9212 30.342 34.5509 27.5272 34.5509 24.1939C34.5509 16.4161 36.1805 12.5643 39.3657 12.5643C40.9953 12.4902 42.2546 13.6013 43.1435 15.8235ZM105.736 33.8235C108.181 36.268 111.292 37.5272 114.995 37.5272C117.292 37.5272 119.292 37.0828 121.069 36.1198C122.847 35.2309 124.255 34.1198 125.218 32.7865L124.477 31.8976C122.847 33.1568 120.995 33.7494 118.847 33.7494C115.884 33.7494 113.588 32.7865 112.032 30.7865C110.403 28.7865 109.662 26.268 109.81 23.0087H125.662C125.662 19.4531 124.773 16.5643 122.921 14.268C121.069 12.0457 118.477 10.9346 115.143 10.9346C110.995 10.9346 107.81 12.268 105.514 14.8605C103.218 17.4531 102.106 20.6383 102.106 24.4161C102.106 28.268 103.292 31.3791 105.736 33.8235ZM111.218 15.2309C112.032 13.4531 113.069 12.5643 114.477 12.5643C116.699 12.5643 117.81 15.3791 117.81 21.0828L109.958 21.2309C110.032 19.0087 110.403 17.0087 111.218 15.2309ZM145.588 12.268C143.588 11.3791 141.069 10.8605 138.032 10.8605C134.921 10.8605 132.477 11.6754 130.625 13.2309C128.773 14.7865 127.81 16.7124 127.81 19.0087C127.81 21.0087 128.403 22.5643 129.514 23.6754C130.625 24.7865 132.403 25.7494 134.699 26.5643C136.773 27.305 138.255 28.0457 138.995 28.7124C139.736 29.4531 140.181 30.268 140.181 31.3791C140.181 32.4161 139.81 33.3791 138.995 34.1198C138.255 34.9346 137.218 35.305 135.884 35.305C132.625 35.305 130.181 32.9346 128.477 28.1939L127.218 28.5643L127.514 35.9717C130.181 37.0087 133.143 37.5272 136.403 37.5272C139.81 37.5272 142.403 36.7865 144.329 35.2309C146.255 33.7494 147.218 31.6013 147.218 28.9346C147.218 27.1568 146.773 25.6754 145.81 24.5643C144.847 23.4531 143.292 22.4902 141.069 21.6013C138.625 20.7124 136.921 19.8976 136.032 19.1568C135.143 18.4161 134.699 17.5272 134.699 16.4161C134.699 15.305 134.995 14.4161 135.662 13.6754C136.329 12.9346 137.143 12.6383 138.18 12.6383C141.143 12.6383 143.292 14.7865 144.625 19.0087L145.884 18.6383L145.588 12.268ZM74.3287 11.6013C73.2916 11.0828 72.1805 10.8605 70.9212 10.8605C69.662 10.8605 68.4027 11.3791 66.9953 12.4161C65.5879 13.4531 64.5509 14.8606 63.7361 16.7865L63.8101 10.8605L52.5509 13.0828V14.1198L53.662 14.1939C55.0694 14.342 55.8842 15.4531 56.0324 17.4531C56.4768 22.0457 56.4768 26.9346 56.0324 32.1198C55.8842 34.1198 55.0694 35.1568 53.662 35.3791L52.5509 35.5272V36.9346H68.2546V35.5272L66.2546 35.3791C64.8472 35.2309 64.0324 34.1198 63.8842 32.1198C63.4398 27.8235 63.3657 23.2309 63.7361 18.4902C64.1805 17.7494 65.1435 17.305 66.625 17.1568C68.1064 17.0087 69.8101 17.4531 71.5879 18.4902L74.3287 11.6013Z" fill="#1F1F1F"/>
</svg>
