<svg width="114" height="31" viewBox="0 0 114 31" fill="none" xmlns="http://www.w3.org/2000/svg">
<g clip-path="url(#clip0_2045_61)">
<path d="M34.2477 1.08714C27.7458 1.13363 22.4274 8.36003 22.4274 14.6631C22.4274 21.2961 26.326 29.3872 34.2477 29.361C42.1695 29.3347 46.2811 20.6239 46.2811 14.6631C46.2811 8.07898 40.7497 1.04066 34.2477 1.08714ZM34.2477 1.33437C39.6896 1.33437 41.1577 7.3445 41.1577 14.6631C41.1577 24.3199 39.3868 29.0841 34.2477 29.075C29.1087 29.0659 27.4369 25.1666 27.4369 14.6631C27.4369 8.0835 28.8059 1.33437 34.2477 1.33437Z" fill="black"/>
<path d="M48.428 14.8411C48.3989 7.6692 54.1389 1.31625 58.998 1.00105C60.7531 0.876701 63.0092 1.68044 64.3264 2.253C65.2828 2.66876 67.2352 2.06696 67.5819 0.962891H67.771V10.7324H67.5819C67.5819 10.3159 65.7726 1.24667 58.998 1.24667C53.994 1.24667 53.5106 10.0455 53.5106 14.8411C53.5106 19.6367 53.6563 29.1304 59.4958 29.1304C62.3246 29.1304 64.4184 27.8927 64.9613 25.389V17.776H62.5869V17.4517H71.7905V17.776H69.5204V28.9061H69.3356C69.3356 28.9061 68.9666 27.3002 67.0939 27.3056C64.7004 27.3124 62.4432 29.3919 59.6916 29.3665C52.4148 29.2996 48.4572 22.0131 48.428 14.8411Z" fill="black"/>
<path d="M4.57703 2.04918H1.7113V1.72705H11.7501V2.04918H9.23161L16.4046 21.5287C18.6476 14.6232 20.3852 9.51859 22.7236 2.04918H20.2325V1.72705H25.5331V2.04918H23.1192L14.4012 29.2269L4.57703 2.04918Z" fill="black"/>
<path d="M73.196 22.573L73.1506 2.01786H70.4229V1.70996H80.4724V2.01786H77.7463L77.8068 24.5555C78.4103 27.1363 79.4833 29.0945 83.1491 29.1236C86.8148 29.1528 89.3069 26.9551 90.2331 23.9517V2.01786H87.1127L87.1126 1.71903H112.653L112.706 11.5863H112.46C111.987 5.21539 109.528 2.80763 105.229 2.1052C103.75 1.86349 102.198 2.04267 100.236 2.02742V14.6207C101.944 14.7527 103.764 14.6447 104.991 13.5913C106.106 12.6335 106.421 10.4203 106.503 9.52123H106.719V20.4861H106.485C106.418 20.4861 106.328 17.7345 104.991 16.429C103.644 15.115 101.93 14.792 100.236 15.105V28.5574C102.629 28.5574 104.537 28.7601 106.193 28.306C111.229 26.9254 113.001 22.677 112.988 18.4161H113.268V28.8759H93.2349V28.5574H95.5V2.01786H90.606V23.9517C90.0513 26.0504 88.024 29.5223 82.8284 29.4986C77.9976 29.4766 73.2064 27.2987 73.196 22.573Z" fill="black"/>
</g>
<defs>
<clipPath id="clip0_2045_61">
<rect width="113.021" height="30" fill="white" transform="translate(0.979248 0.230957)"/>
</clipPath>
</defs>
</svg>
