<svg width="195" height="41" viewBox="0 0 195 41" fill="none" xmlns="http://www.w3.org/2000/svg">
    <path d="M19.4809 39.7119L22.987 4.90631C23.1172 3.0877 23.506 2.82817 24.1553 2.82817H24.5451V0.88212H18.8316V2.82817H19.2214C20.0009 2.82817 20.3898 3.34724 20.2605 4.90631L18.1814 25.6858L15.8437 4.90631C15.5842 3.21793 15.974 2.82817 16.8828 2.82817H17.013V0.88212H9.09116V2.82817H9.48093C10.2605 2.82817 10.2605 3.0877 10.3898 4.90631L11.0409 10.231L9.09116 27.1147L7.01302 4.90631C6.75349 3.0877 7.14326 2.82817 7.92186 2.82817H8.05209V0.88212H0V2.82817H0.389767C1.2986 2.82817 1.2986 3.0877 1.42884 4.90631L5.06512 39.7119H10.2595L12.3377 21.79L14.2856 39.7119H19.4809ZM52.987 16.8542C52.987 14.3863 52.987 13.6077 54.5451 13.6077C55.5842 13.6077 55.5842 13.9975 55.5842 16.0756V36.8542C55.5842 37.6337 55.3246 37.7631 54.933 37.7631H54.6735V39.711H62.5953V37.7631H62.2056C61.6865 37.7631 61.5544 37.5035 61.5544 36.724V14.9063C61.5544 11.27 60.7749 9.97142 57.2688 9.97142C56.3166 9.86793 55.3579 10.0954 54.5537 10.6157C53.7495 11.136 53.1489 11.9172 52.853 12.8282C52.4633 10.8803 51.4242 9.97142 48.6967 9.97142C46.4893 9.97142 45.32 10.6226 44.4112 12.8282V9.97142L37.5274 10.4905V12.4384H37.787C38.1767 12.4384 38.5665 12.8282 38.5665 13.8672V36.5947C38.5665 37.5035 38.307 37.7631 37.787 37.7631H37.5274V39.711H45.1898V37.7631H44.9302C44.5405 37.7631 44.4112 37.6328 44.4112 36.9835V16.8542C44.4112 14.3863 44.4112 13.6077 45.84 13.6077C46.8791 13.6077 46.8791 13.9975 46.8791 16.0756V36.8542C46.8791 37.6337 46.6195 37.7631 46.2279 37.7631H45.8381V39.711H53.6307V37.7631H53.5005C52.9814 37.7631 52.7209 37.5035 52.7209 36.724V16.8542H52.987ZM107.793 39.711H117.403V37.7631H116.752C115.972 37.7631 115.713 37.3733 115.713 35.6849V20.6207H120.778V35.5556C120.778 37.244 120.518 37.6337 119.739 37.6337H118.959V39.5798H128.44V37.6337H127.66C126.881 37.6337 126.621 37.244 126.621 35.5556V4.90631C126.621 3.0877 126.752 2.82817 127.66 2.82817H128.44V0.88212H118.961V2.82817H119.74C120.52 2.82817 120.78 3.0877 120.78 4.90631V18.4124H115.585V4.90631C115.585 3.0877 115.845 2.82817 116.753 2.82817H117.405V0.88212H107.793V2.82817H108.572C109.352 2.82817 109.611 3.0877 109.611 4.90631V36.5947C109.611 37.3742 109.352 37.6337 108.572 37.6337H107.793V39.711ZM178.312 39.711H185.847V37.7631H185.581C185.062 37.7631 185.062 37.6328 185.062 36.9835V16.8542C185.062 14.3863 185.062 13.6077 186.62 13.6077C187.789 13.6077 187.789 13.9975 187.789 16.0756V36.8542C187.789 37.6337 187.529 37.7631 187.27 37.7631H186.884V39.711H194.936V37.7631H194.546C194.027 37.7631 193.895 37.5035 193.895 36.724V14.9063C193.895 11.27 192.986 9.97142 189.479 9.97142C187.141 9.97142 185.843 10.6226 184.934 12.8282V0.230957L177.661 0.88212V2.82817H178.441C178.96 2.82817 179.22 3.0877 179.22 4.257V36.5947C179.22 37.5035 179.09 37.7631 178.441 37.7631H178.181V39.711H178.312ZM29.8698 40.1007C36.2335 40.1007 37.1423 34.7761 37.1423 25.0356C37.1423 15.2951 36.2335 9.97049 29.8698 9.97049C23.506 9.97049 22.5972 15.1649 22.5972 25.0356C22.5972 34.7761 23.506 40.1007 29.8698 40.1007ZM77.1423 39.711H84.8046V37.7631H84.4149C84.0251 37.7631 84.0251 37.6328 84.0251 36.9835V16.8542C84.0251 14.3863 84.0251 13.6077 85.5833 13.6077C86.6223 13.6077 86.7526 13.9975 86.7526 16.0756V36.8542C86.7526 37.6337 86.493 37.7631 86.1014 37.7631H85.7116V39.711H93.7674V37.7631H93.5079C92.9888 37.7631 92.8567 37.5035 92.8567 36.724V14.9063C92.8567 11.27 92.0772 9.97142 88.4409 9.97142C86.2335 9.97142 84.8046 10.6226 84.0251 12.8282V9.97142L76.6223 10.4905V12.4384H77.4019C77.7916 12.4384 78.1814 12.8282 78.1814 13.8672V36.5947C78.1814 37.5035 77.9219 37.7631 77.4019 37.7631H77.1423L77.1433 39.7119L77.1423 39.711ZM146.494 40.231C149.091 40.231 150.13 38.9286 150.65 37.3742C151.169 39.7119 151.689 40.231 154.676 40.231C158.182 40.231 158.572 38.1528 158.572 34.1268H156.884C156.884 37.1137 156.884 37.3733 156.233 37.3733C155.713 37.3733 155.713 37.1137 155.713 35.4254V16.0765C155.713 12.1807 154.411 10.1026 149.87 10.1026C146.233 10.1026 142.727 11.1417 142.857 15.1677C142.987 16.9863 143.636 18.804 145.584 18.6737C147.273 18.5435 148.052 17.6347 148.052 16.2058C147.98 15.5204 147.771 14.8565 147.436 14.254C147.101 13.6515 146.648 13.1229 146.104 12.6998C146.837 12.3721 147.642 12.2379 148.442 12.31C149.744 12.31 150 13.3491 150 15.1668V20.6217C143.377 22.8291 142.078 23.7389 142.078 32.0505C142.078 37.8942 143.636 40.2365 146.494 40.2365V40.231ZM135.195 40.231C140.13 40.231 141.3 38.8021 141.039 30.6207H138.961C138.961 37.1147 138.701 37.5044 136.493 37.5044C133.766 37.5044 133.766 36.3361 133.766 25.297V24.3882H141.687C141.687 13.2198 140.385 10.1026 135.193 10.1026C130.388 10.1026 127.921 13.0896 127.921 25.297C127.922 36.9844 129.87 40.231 135.194 40.231H135.195ZM70.2605 40.1007C75.066 40.1007 76.3647 38.6719 76.2344 30.4905H74.1563C74.1563 36.9844 73.8967 37.3742 71.5591 37.3742C68.5721 37.3742 68.8316 36.2058 68.8316 25.1668V24.2579H76.4939C76.4939 13.0896 75.4549 9.97235 70.2614 9.97235C65.4558 9.97235 62.9888 12.9593 62.9888 25.1668C62.9888 36.9807 64.9367 40.1017 70.2614 40.1017L70.2605 40.1007ZM158.962 39.711H166.884V37.7631H166.233C165.713 37.7631 165.581 37.5035 165.581 36.724V0.230957L158.179 0.88212V2.82817H158.958C159.477 2.82817 159.609 3.0877 159.609 3.86724V36.8542C159.609 37.6337 159.609 37.7631 159.22 37.7631H158.83V39.711H158.962ZM102.079 40.1007C105.715 40.1007 107.534 37.7631 107.534 34.1268C107.534 25.6849 99.9991 20.8803 99.9991 14.9063C99.9991 13.0877 100.65 12.5686 101.947 12.5686C103.895 12.5686 104.154 13.3482 104.415 16.2049L104.674 18.9324H106.884V10.231H105.195C105.065 11.27 104.806 11.6598 104.806 11.5333C104.29 10.9943 103.662 10.5753 102.966 10.3061C102.27 10.0368 101.524 9.92384 100.78 9.97514C97.6623 9.97514 94.8056 11.404 94.8056 16.0793C94.8056 23.4821 102.34 29.0663 102.34 34.6505C102.34 37.1184 101.821 37.5072 100.003 37.5072C98.3144 37.5072 97.7953 36.7277 97.5349 33.0914L97.4046 30.6235H95.067V39.7147H97.0149C97.1451 38.6756 97.534 38.0263 97.7944 38.4123C98.4456 39.0635 99.2223 40.1007 102.079 40.1007ZM168.186 33.6077C168.186 38.2831 168.837 40.1017 173.511 40.1017C176.757 40.1017 177.537 38.7993 177.537 35.1668V30.231H175.589V35.4254C175.589 37.1137 175.459 37.3733 174.809 37.3733C174.16 37.3733 174.03 37.1137 174.03 35.6849V12.4384H177.666V10.231H174.03V2.82817H171.952C170.523 9.45142 169.224 10.231 167.276 10.231H166.757V12.4384H168.06V33.6077H168.186ZM29.8698 37.5035C28.4409 37.5035 28.4409 36.724 28.4409 25.0384C28.4409 13.2244 28.4409 12.4412 29.8698 12.4412C31.1721 12.4412 31.1721 13.2207 31.1721 24.9063C31.1721 36.7203 31.1721 37.5035 29.8698 37.5035ZM94.1553 11.5296C99.0902 7.89328 100.129 5.03561 98.4409 2.56863C97.6623 1.13979 95.5842 0.230957 94.1563 1.53328C92.3377 2.96212 92.854 5.55933 96.1042 7.11468C95.453 7.76584 94.1563 9.19282 92.987 10.2319L94.1553 11.5296ZM148.961 36.4644C147.792 36.4644 147.792 35.1621 147.792 31.27C147.792 24.1268 147.792 23.2179 150.129 21.9193V34.1268C150.129 36.0747 149.87 36.4644 148.961 36.4644ZM68.8307 22.0458C68.9609 12.8254 69.0902 12.3054 70.3888 12.3054C71.6874 12.3054 71.5572 12.8244 71.5572 22.0458H68.8307ZM133.766 22.0458C133.896 12.8254 134.025 12.3054 135.324 12.3054C136.622 12.3054 136.363 12.8244 136.363 22.0458H133.766Z" fill="#FB1533"/>
</svg>
